<?xml version="1.0" encoding="utf-8" standalone="no"?>
<!DOCTYPE svg PUBLIC "-//W3C//DTD SVG 1.1//EN" "http://www.w3.org/Graphics/SVG/1.1/DTD/svg11.dtd">
<svg version="1.1" width="850.3pt" height="850.3pt" viewBox="0 0 850.32 850.32" xmlns="http://www.w3.org/2000/svg">
  <defs />
  <g id="Crease_Edges">
    <path d="M546.52844,260.62186 L551.1479,253.78447" stroke="#0000FF" stroke-width="0.24" stroke-linecap="round" stroke-linejoin="round" fill="none" />
    <path d="M559.08234,242.04034 L567.01685,230.29622" stroke="#0000FF" stroke-width="0.24" stroke-linecap="butt" stroke-linejoin="round" fill="none" />
    <path d="M574.9513,218.55208 L582.88574,206.80795" stroke="#0000FF" stroke-width="0.24" stroke-linecap="butt" stroke-linejoin="round" fill="none" />
    <path d="M590.82025,195.06383 L595.43964,188.22641" stroke="#0000FF" stroke-width="0.24" stroke-linecap="round" stroke-linejoin="round" fill="none" />
    <path d="M334.3631,510.49225 L318.18118,509.18362" stroke="#0000FF" stroke-width="0.24" stroke-linecap="round" stroke-linejoin="round" fill="none" />
    <path d="M304.05408,508.04114 L289.92694,506.89862" stroke="#0000FF" stroke-width="0.24" stroke-linecap="butt" stroke-linejoin="round" fill="none" />
    <path d="M275.79984,505.75616 L261.67273,504.6137" stroke="#0000FF" stroke-width="0.24" stroke-linecap="butt" stroke-linejoin="round" fill="none" />
    <path d="M247.54564,503.4712 L231.36372,502.16257" stroke="#0000FF" stroke-width="0.24" stroke-linecap="round" stroke-linejoin="round" fill="none" />
    <path d="M458.66803,537.3948 L452.44666,529.11865" stroke="#0000FF" stroke-width="0.24" stroke-linecap="round" stroke-linejoin="round" fill="none" />
    <path d="M443.93018,517.7894 L435.41376,506.4603" stroke="#0000FF" stroke-width="0.24" stroke-linecap="butt" stroke-linejoin="round" fill="none" />
    <path d="M426.8973,495.13107 L418.3809,483.80188" stroke="#0000FF" stroke-width="0.24" stroke-linecap="butt" stroke-linejoin="round" fill="none" />
    <path d="M409.8644,472.4727 L401.348,461.1435" stroke="#0000FF" stroke-width="0.24" stroke-linecap="butt" stroke-linejoin="round" fill="none" />
    <path d="M392.83154,449.81433 L386.61014,441.53815" stroke="#0000FF" stroke-width="0.24" stroke-linecap="round" stroke-linejoin="round" fill="none" />
    <path d="M505.83035,584.60223 L498.5321,566.4436" stroke="#0000FF" stroke-width="0.24" stroke-linecap="round" stroke-linejoin="round" fill="none" />
    <path d="M493.24652,553.2928 L487.96103,540.14197" stroke="#0000FF" stroke-width="0.24" stroke-linecap="butt" stroke-linejoin="round" fill="none" />
    <path d="M482.67545,526.9912 L477.38992,513.8404" stroke="#0000FF" stroke-width="0.24" stroke-linecap="butt" stroke-linejoin="round" fill="none" />
    <path d="M472.10437,500.68964 L464.8061,482.53098" stroke="#0000FF" stroke-width="0.24" stroke-linecap="round" stroke-linejoin="round" fill="none" />
    <path d="M660.9942,357.8856 L652.2544,370.1296" stroke="#0000FF" stroke-width="0.24" stroke-linecap="round" stroke-linejoin="round" fill="none" />
    <path d="M644.02,381.66544 L635.78564,393.2013" stroke="#0000FF" stroke-width="0.24" stroke-linecap="butt" stroke-linejoin="round" fill="none" />
    <path d="M627.55133,404.73715 L618.81146,416.98117" stroke="#0000FF" stroke-width="0.24" stroke-linecap="round" stroke-linejoin="round" fill="none" />
    <path d="M551.81683,633.02893 L549.16644,623.4113" stroke="#0000FF" stroke-width="0.24" stroke-linecap="round" stroke-linejoin="round" fill="none" />
    <path d="M545.4011,609.74744 L541.6357,596.0835" stroke="#0000FF" stroke-width="0.24" stroke-linecap="butt" stroke-linejoin="round" fill="none" />
    <path d="M537.8703,582.4196 L534.1049,568.7557" stroke="#0000FF" stroke-width="0.24" stroke-linecap="butt" stroke-linejoin="round" fill="none" />
    <path d="M530.33954,555.09174 L527.6892,545.4741" stroke="#0000FF" stroke-width="0.24" stroke-linecap="round" stroke-linejoin="round" fill="none" />
    <path d="M458.66803,537.3948 L460.94916,517.0056" stroke="#0000FF" stroke-width="0.24" stroke-linecap="round" stroke-linejoin="round" fill="none" />
    <path d="M462.52496,502.92023 L464.8061,482.53098" stroke="#0000FF" stroke-width="0.24" stroke-linecap="round" stroke-linejoin="round" fill="none" />
    <path d="M266.4537,615.6727 L256.52805,610.7434" stroke="#0000FF" stroke-width="0.24" stroke-linecap="round" stroke-linejoin="round" fill="none" />
    <path d="M243.83403,604.4392 L231.14001,598.1351" stroke="#0000FF" stroke-width="0.24" stroke-linecap="butt" stroke-linejoin="round" fill="none" />
    <path d="M218.446,591.8309 L208.52032,586.90155" stroke="#0000FF" stroke-width="0.24" stroke-linecap="round" stroke-linejoin="round" fill="none" />
    <path d="M283.58627,552.11847 L272.83768,541.83636" stroke="#0000FF" stroke-width="0.24" stroke-linecap="round" stroke-linejoin="round" fill="none" />
    <path d="M262.5959,532.0392 L252.35411,522.2419" stroke="#0000FF" stroke-width="0.24" stroke-linecap="butt" stroke-linejoin="round" fill="none" />
    <path d="M242.11232,512.44464 L231.36372,502.16257" stroke="#0000FF" stroke-width="0.24" stroke-linecap="round" stroke-linejoin="round" fill="none" />
    <path d="M334.3631,510.49225 L327.00256,497.18146" stroke="#0000FF" stroke-width="0.24" stroke-linecap="round" stroke-linejoin="round" fill="none" />
    <path d="M320.14392,484.7782 L313.2853,472.375" stroke="#0000FF" stroke-width="0.24" stroke-linecap="butt" stroke-linejoin="round" fill="none" />
    <path d="M306.42667,459.97177 L299.06616,446.66092" stroke="#0000FF" stroke-width="0.24" stroke-linecap="round" stroke-linejoin="round" fill="none" />
    <path d="M400.0211,506.6502 L397.6044,494.9169" stroke="#0000FF" stroke-width="0.24" stroke-linecap="round" stroke-linejoin="round" fill="none" />
    <path d="M394.7452,481.0351 L391.88602,467.15326" stroke="#0000FF" stroke-width="0.24" stroke-linecap="butt" stroke-linejoin="round" fill="none" />
    <path d="M389.02682,453.2714 L386.61014,441.53815" stroke="#0000FF" stroke-width="0.24" stroke-linecap="round" stroke-linejoin="round" fill="none" />
    <path d="M505.83035,584.60223 L513.30365,571.22485" stroke="#0000FF" stroke-width="0.24" stroke-linecap="round" stroke-linejoin="round" fill="none" />
    <path d="M520.21594,558.8515 L527.6892,545.4741" stroke="#0000FF" stroke-width="0.24" stroke-linecap="round" stroke-linejoin="round" fill="none" />
    <path d="M718.65924,409.12946 L708.28143,419.7861" stroke="#0000FF" stroke-width="0.24" stroke-linecap="round" stroke-linejoin="round" fill="none" />
    <path d="M698.3931,429.94003 L688.5049,440.09393" stroke="#0000FF" stroke-width="0.24" stroke-linecap="butt" stroke-linejoin="round" fill="none" />
    <path d="M678.6165,450.24786 L668.2387,460.90448" stroke="#0000FF" stroke-width="0.24" stroke-linecap="round" stroke-linejoin="round" fill="none" />
    <path d="M551.81683,633.02893 L564.3826,625.26196" stroke="#0000FF" stroke-width="0.24" stroke-linecap="round" stroke-linejoin="round" fill="none" />
    <path d="M576.4387,617.8101 L589.00446,610.04315" stroke="#0000FF" stroke-width="0.24" stroke-linecap="round" stroke-linejoin="round" fill="none" />
    <path d="M597.99115,681.25256 L617.2545,678.72046" stroke="#0000FF" stroke-width="0.24" stroke-linecap="round" stroke-linejoin="round" fill="none" />
    <path d="M631.3069,676.87335 L650.5702,674.3413" stroke="#0000FF" stroke-width="0.24" stroke-linecap="round" stroke-linejoin="round" fill="none" />
    <path d="M400.0211,506.6502 L392.18906,501.99628" stroke="#0000FF" stroke-width="0.24" stroke-linecap="round" stroke-linejoin="round" fill="none" />
    <path d="M380.00464,494.75607 L367.82025,487.51584" stroke="#0000FF" stroke-width="0.24" stroke-linecap="butt" stroke-linejoin="round" fill="none" />
    <path d="M355.63583,480.27567 L343.45142,473.03546" stroke="#0000FF" stroke-width="0.24" stroke-linecap="butt" stroke-linejoin="round" fill="none" />
    <path d="M331.267,465.79526 L319.08258,458.55505" stroke="#0000FF" stroke-width="0.24" stroke-linecap="butt" stroke-linejoin="round" fill="none" />
    <path d="M306.8982,451.31488 L299.06616,446.66092" stroke="#0000FF" stroke-width="0.24" stroke-linecap="round" stroke-linejoin="round" fill="none" />
    <path d="M266.4537,615.6727 L259.73056,626.2293" stroke="#0000FF" stroke-width="0.24" stroke-linecap="round" stroke-linejoin="round" fill="none" />
    <path d="M252.11703,638.18396 L244.50348,650.1387" stroke="#0000FF" stroke-width="0.24" stroke-linecap="butt" stroke-linejoin="round" fill="none" />
    <path d="M236.88994,662.0933 L230.1668,672.6499" stroke="#0000FF" stroke-width="0.24" stroke-linecap="round" stroke-linejoin="round" fill="none" />
    <path d="M660.9942,357.8856 L662.13086,374.04926" stroke="#0000FF" stroke-width="0.24" stroke-linecap="round" stroke-linejoin="round" fill="none" />
    <path d="M663.1251,388.18756 L664.1193,402.32587" stroke="#0000FF" stroke-width="0.24" stroke-linecap="butt" stroke-linejoin="round" fill="none" />
    <path d="M665.1135,416.4642 L666.1078,430.6025" stroke="#0000FF" stroke-width="0.24" stroke-linecap="butt" stroke-linejoin="round" fill="none" />
    <path d="M667.10205,444.7408 L668.2387,460.90448" stroke="#0000FF" stroke-width="0.24" stroke-linecap="round" stroke-linejoin="round" fill="none" />
    <path d="M586.18146,338.3916 L588.9094,344.96185" stroke="#0000FF" stroke-width="0.24" stroke-linecap="round" stroke-linejoin="round" fill="none" />
    <path d="M594.34424,358.05167 L599.77905,371.14148" stroke="#0000FF" stroke-width="0.24" stroke-linecap="butt" stroke-linejoin="round" fill="none" />
    <path d="M605.2139,384.2313 L610.6487,397.32108" stroke="#0000FF" stroke-width="0.24" stroke-linecap="butt" stroke-linejoin="round" fill="none" />
    <path d="M616.0835,410.4109 L618.81146,416.98117" stroke="#0000FF" stroke-width="0.24" stroke-linecap="round" stroke-linejoin="round" fill="none" />
    <path d="M508.67322,344.71576 L518.1189,356.12057" stroke="#0000FF" stroke-width="0.24" stroke-linecap="round" stroke-linejoin="round" fill="none" />
    <path d="M527.1595,367.03613 L536.2,377.9517" stroke="#0000FF" stroke-width="0.24" stroke-linecap="butt" stroke-linejoin="round" fill="none" />
    <path d="M545.2405,388.86725 L554.6863,400.27203" stroke="#0000FF" stroke-width="0.24" stroke-linecap="round" stroke-linejoin="round" fill="none" />
    <path d="M431.57394,355.816 L443.9524,366.70935" stroke="#0000FF" stroke-width="0.24" stroke-linecap="round" stroke-linejoin="round" fill="none" />
    <path d="M454.59232,376.0727 L465.2322,385.43607" stroke="#0000FF" stroke-width="0.24" stroke-linecap="butt" stroke-linejoin="round" fill="none" />
    <path d="M475.87213,394.7994 L488.25058,405.69275" stroke="#0000FF" stroke-width="0.24" stroke-linecap="round" stroke-linejoin="round" fill="none" />
    <path d="M353.8468,353.6476 L361.6829,360.70847" stroke="#0000FF" stroke-width="0.24" stroke-linecap="round" stroke-linejoin="round" fill="none" />
    <path d="M372.2122,370.19604 L382.74152,379.68362" stroke="#0000FF" stroke-width="0.24" stroke-linecap="butt" stroke-linejoin="round" fill="none" />
    <path d="M393.2708,389.17123 L403.8001,398.6588" stroke="#0000FF" stroke-width="0.24" stroke-linecap="butt" stroke-linejoin="round" fill="none" />
    <path d="M414.3294,408.1464 L422.1655,415.20724" stroke="#0000FF" stroke-width="0.24" stroke-linecap="round" stroke-linejoin="round" fill="none" />
    <path d="M277.8589,336.6485 L291.48657,350.10367" stroke="#0000FF" stroke-width="0.24" stroke-linecap="round" stroke-linejoin="round" fill="none" />
    <path d="M301.57214,360.0616 L311.65778,370.01956" stroke="#0000FF" stroke-width="0.24" stroke-linecap="butt" stroke-linejoin="round" fill="none" />
    <path d="M321.74338,379.97754 L331.829,389.9355" stroke="#0000FF" stroke-width="0.24" stroke-linecap="butt" stroke-linejoin="round" fill="none" />
    <path d="M341.9146,399.89343 L355.54227,413.3486" stroke="#0000FF" stroke-width="0.24" stroke-linecap="round" stroke-linejoin="round" fill="none" />
    <path d="M201.75183,320.3485 L208.9261,326.6951" stroke="#0000FF" stroke-width="0.24" stroke-linecap="round" stroke-linejoin="round" fill="none" />
    <path d="M219.54173,336.08603 L230.15736,345.4769" stroke="#0000FF" stroke-width="0.24" stroke-linecap="butt" stroke-linejoin="round" fill="none" />
    <path d="M240.77298,354.8678 L251.38861,364.25867" stroke="#0000FF" stroke-width="0.24" stroke-linecap="butt" stroke-linejoin="round" fill="none" />
    <path d="M262.00424,373.6496 L272.61987,383.04047" stroke="#0000FF" stroke-width="0.24" stroke-linecap="butt" stroke-linejoin="round" fill="none" />
    <path d="M283.2355,392.43137 L290.4098,398.77792" stroke="#0000FF" stroke-width="0.24" stroke-linecap="round" stroke-linejoin="round" fill="none" />
    <path d="M599.7289,275.56848 L609.08716,266.71347" stroke="#0000FF" stroke-width="0.24" stroke-linecap="round" stroke-linejoin="round" fill="none" />
    <path d="M619.38214,256.9721 L629.67706,247.23076" stroke="#0000FF" stroke-width="0.24" stroke-linecap="butt" stroke-linejoin="round" fill="none" />
    <path d="M639.97205,237.48941 L650.267,227.74805" stroke="#0000FF" stroke-width="0.24" stroke-linecap="butt" stroke-linejoin="round" fill="none" />
    <path d="M660.562,218.00668 L669.9203,209.15167" stroke="#0000FF" stroke-width="0.24" stroke-linecap="round" stroke-linejoin="round" fill="none" />
    <path d="M639.5578,313.4783 L652.17017,305.97247" stroke="#0000FF" stroke-width="0.24" stroke-linecap="round" stroke-linejoin="round" fill="none" />
    <path d="M664.34985,298.7242 L676.5295,291.47595" stroke="#0000FF" stroke-width="0.24" stroke-linecap="butt" stroke-linejoin="round" fill="none" />
    <path d="M688.70905,284.2277 L700.88873,276.97946" stroke="#0000FF" stroke-width="0.24" stroke-linecap="butt" stroke-linejoin="round" fill="none" />
    <path d="M713.0683,269.7312 L725.6807,262.2254" stroke="#0000FF" stroke-width="0.24" stroke-linecap="round" stroke-linejoin="round" fill="none" />
    <path d="M597.99115,681.25256 L596.1597,666.7404" stroke="#0000FF" stroke-width="0.24" stroke-linecap="round" stroke-linejoin="round" fill="none" />
    <path d="M594.3851,652.6787 L592.61053,638.617" stroke="#0000FF" stroke-width="0.24" stroke-linecap="butt" stroke-linejoin="round" fill="none" />
    <path d="M590.83594,624.5553 L589.00446,610.04315" stroke="#0000FF" stroke-width="0.24" stroke-linecap="round" stroke-linejoin="round" fill="none" />
    <path d="M586.18146,338.3916 L580.0773,350.38492" stroke="#0000FF" stroke-width="0.24" stroke-linecap="round" stroke-linejoin="round" fill="none" />
    <path d="M573.6483,363.01617 L567.2194,375.64746" stroke="#0000FF" stroke-width="0.24" stroke-linecap="butt" stroke-linejoin="round" fill="none" />
    <path d="M560.79047,388.27875 L554.6863,400.27203" stroke="#0000FF" stroke-width="0.24" stroke-linecap="round" stroke-linejoin="round" fill="none" />
    <path d="M508.67322,344.71576 L505.21365,355.04504" stroke="#0000FF" stroke-width="0.24" stroke-linecap="round" stroke-linejoin="round" fill="none" />
    <path d="M500.7125,368.48453 L496.2113,381.92398" stroke="#0000FF" stroke-width="0.24" stroke-linecap="butt" stroke-linejoin="round" fill="none" />
    <path d="M491.71008,395.3635 L488.25058,405.69275" stroke="#0000FF" stroke-width="0.24" stroke-linecap="round" stroke-linejoin="round" fill="none" />
    <path d="M431.57394,355.816 L430.1961,364.5136" stroke="#0000FF" stroke-width="0.24" stroke-linecap="round" stroke-linejoin="round" fill="none" />
    <path d="M427.97852,378.5123 L425.76093,392.51096" stroke="#0000FF" stroke-width="0.24" stroke-linecap="butt" stroke-linejoin="round" fill="none" />
    <path d="M423.54333,406.50964 L422.1655,415.20724" stroke="#0000FF" stroke-width="0.24" stroke-linecap="round" stroke-linejoin="round" fill="none" />
    <path d="M353.8468,353.6476 L354.091,362.24683" stroke="#0000FF" stroke-width="0.24" stroke-linecap="round" stroke-linejoin="round" fill="none" />
    <path d="M354.49335,376.41437 L354.8957,390.58188" stroke="#0000FF" stroke-width="0.24" stroke-linecap="butt" stroke-linejoin="round" fill="none" />
    <path d="M355.29807,404.7494 L355.54227,413.3486" stroke="#0000FF" stroke-width="0.24" stroke-linecap="round" stroke-linejoin="round" fill="none" />
    <path d="M277.8589,336.6485 L279.92465,346.87433" stroke="#0000FF" stroke-width="0.24" stroke-linecap="round" stroke-linejoin="round" fill="none" />
    <path d="M282.7311,360.7669 L285.53757,374.65952" stroke="#0000FF" stroke-width="0.24" stroke-linecap="butt" stroke-linejoin="round" fill="none" />
    <path d="M288.34402,388.5521 L290.4098,398.77792" stroke="#0000FF" stroke-width="0.24" stroke-linecap="round" stroke-linejoin="round" fill="none" />
    <path d="M201.75183,320.3485 L206.20245,332.59607" stroke="#0000FF" stroke-width="0.24" stroke-linecap="round" stroke-linejoin="round" fill="none" />
    <path d="M211.04315,345.91705 L215.88383,359.238" stroke="#0000FF" stroke-width="0.24" stroke-linecap="butt" stroke-linejoin="round" fill="none" />
    <path d="M220.72452,372.559 L225.17516,384.80655" stroke="#0000FF" stroke-width="0.24" stroke-linecap="round" stroke-linejoin="round" fill="none" />
    <path d="M124.639275,326.80295 L131.72778,339.8803" stroke="#0000FF" stroke-width="0.24" stroke-linecap="round" stroke-linejoin="round" fill="none" />
    <path d="M138.4819,352.3407 L145.23604,364.80115" stroke="#0000FF" stroke-width="0.24" stroke-linecap="butt" stroke-linejoin="round" fill="none" />
    <path d="M151.99016,377.26157 L159.07867,390.3389" stroke="#0000FF" stroke-width="0.24" stroke-linecap="round" stroke-linejoin="round" fill="none" />
    <path d="M282.68857,679.9841 L263.4462,677.29706" stroke="#0000FF" stroke-width="0.24" stroke-linecap="round" stroke-linejoin="round" fill="none" />
    <path d="M249.40916,675.3369 L230.1668,672.6499" stroke="#0000FF" stroke-width="0.24" stroke-linecap="round" stroke-linejoin="round" fill="none" />
    <path d="M283.58627,552.11847 L265.34293,560.57184" stroke="#0000FF" stroke-width="0.24" stroke-linecap="round" stroke-linejoin="round" fill="none" />
    <path d="M252.48317,566.5306 L239.62341,572.48944" stroke="#0000FF" stroke-width="0.24" stroke-linecap="butt" stroke-linejoin="round" fill="none" />
    <path d="M226.76366,578.4482 L208.52032,586.90155" stroke="#0000FF" stroke-width="0.24" stroke-linecap="round" stroke-linejoin="round" fill="none" />
    <path d="M270.33368,255.40497 L256.96637,252.3059" stroke="#0000FF" stroke-width="0.24" stroke-linecap="round" stroke-linejoin="round" fill="none" />
    <path d="M243.15933,249.10492 L229.35231,245.9039" stroke="#0000FF" stroke-width="0.24" stroke-linecap="butt" stroke-linejoin="round" fill="none" />
    <path d="M215.54529,242.70291 L201.73825,239.5019" stroke="#0000FF" stroke-width="0.24" stroke-linecap="butt" stroke-linejoin="round" fill="none" />
    <path d="M187.93121,236.30092 L174.1242,233.09991" stroke="#0000FF" stroke-width="0.24" stroke-linecap="butt" stroke-linejoin="round" fill="none" />
    <path d="M160.31717,229.89893 L146.94983,226.79985" stroke="#0000FF" stroke-width="0.24" stroke-linecap="round" stroke-linejoin="round" fill="none" />
    <path d="M324.96017,247.05867 L309.97543,238.52951" stroke="#0000FF" stroke-width="0.24" stroke-linecap="round" stroke-linejoin="round" fill="none" />
    <path d="M297.65778,231.51843 L285.34012,224.50734" stroke="#0000FF" stroke-width="0.24" stroke-linecap="butt" stroke-linejoin="round" fill="none" />
    <path d="M273.02243,217.49625 L260.70474,210.48517" stroke="#0000FF" stroke-width="0.24" stroke-linecap="butt" stroke-linejoin="round" fill="none" />
    <path d="M248.38708,203.47408 L236.06941,196.46298" stroke="#0000FF" stroke-width="0.24" stroke-linecap="butt" stroke-linejoin="round" fill="none" />
    <path d="M223.75175,189.45189 L208.76701,180.92274" stroke="#0000FF" stroke-width="0.24" stroke-linecap="round" stroke-linejoin="round" fill="none" />
    <path d="M380.1077,254.24171 L369.62018,244.84424" stroke="#0000FF" stroke-width="0.24" stroke-linecap="round" stroke-linejoin="round" fill="none" />
    <path d="M359.06467,235.38583 L348.50916,225.92743" stroke="#0000FF" stroke-width="0.24" stroke-linecap="butt" stroke-linejoin="round" fill="none" />
    <path d="M337.95364,216.46901 L327.3981,207.01062" stroke="#0000FF" stroke-width="0.24" stroke-linecap="butt" stroke-linejoin="round" fill="none" />
    <path d="M316.8426,197.55222 L306.28708,188.09381" stroke="#0000FF" stroke-width="0.24" stroke-linecap="butt" stroke-linejoin="round" fill="none" />
    <path d="M295.73157,178.63539 L285.24408,169.23795" stroke="#0000FF" stroke-width="0.24" stroke-linecap="round" stroke-linejoin="round" fill="none" />
    <path d="M435.28925,261.27502 L422.40436,246.77293" stroke="#0000FF" stroke-width="0.24" stroke-linecap="round" stroke-linejoin="round" fill="none" />
    <path d="M412.9906,236.1776 L403.5768,225.58226" stroke="#0000FF" stroke-width="0.24" stroke-linecap="butt" stroke-linejoin="round" fill="none" />
    <path d="M394.16302,214.98692 L384.74924,204.3916" stroke="#0000FF" stroke-width="0.24" stroke-linecap="butt" stroke-linejoin="round" fill="none" />
    <path d="M375.33548,193.79625 L362.4506,179.29416" stroke="#0000FF" stroke-width="0.24" stroke-linecap="round" stroke-linejoin="round" fill="none" />
    <path d="M490.91663,261.0245 L485.8702,253.94107" stroke="#0000FF" stroke-width="0.24" stroke-linecap="round" stroke-linejoin="round" fill="none" />
    <path d="M477.6464,242.3977 L469.4226,230.85434" stroke="#0000FF" stroke-width="0.24" stroke-linecap="butt" stroke-linejoin="round" fill="none" />
    <path d="M461.1988,219.31097 L452.97498,207.76761" stroke="#0000FF" stroke-width="0.24" stroke-linecap="butt" stroke-linejoin="round" fill="none" />
    <path d="M444.75116,196.22423 L439.70474,189.14082" stroke="#0000FF" stroke-width="0.24" stroke-linecap="round" stroke-linejoin="round" fill="none" />
    <path d="M546.52844,260.62186 L540.0018,244.42505" stroke="#0000FF" stroke-width="0.24" stroke-linecap="round" stroke-linejoin="round" fill="none" />
    <path d="M534.70447,231.27899 L529.4071,218.13295" stroke="#0000FF" stroke-width="0.24" stroke-linecap="butt" stroke-linejoin="round" fill="none" />
    <path d="M524.1098,204.9869 L517.5831,188.79007" stroke="#0000FF" stroke-width="0.24" stroke-linecap="round" stroke-linejoin="round" fill="none" />
    <path d="M599.7289,275.56848 L599.32227,267.28787" stroke="#0000FF" stroke-width="0.24" stroke-linecap="round" stroke-linejoin="round" fill="none" />
    <path d="M598.6271,253.13171 L597.9319,238.97552" stroke="#0000FF" stroke-width="0.24" stroke-linecap="butt" stroke-linejoin="round" fill="none" />
    <path d="M597.23663,224.81937 L596.5415,210.6632" stroke="#0000FF" stroke-width="0.24" stroke-linecap="butt" stroke-linejoin="round" fill="none" />
    <path d="M595.8463,196.50703 L595.43964,188.22641" stroke="#0000FF" stroke-width="0.24" stroke-linecap="round" stroke-linejoin="round" fill="none" />
    <path d="M639.5578,313.4783 L644.83765,295.33652" stroke="#0000FF" stroke-width="0.24" stroke-linecap="round" stroke-linejoin="round" fill="none" />
    <path d="M648.7982,281.7279 L652.7587,268.1193" stroke="#0000FF" stroke-width="0.24" stroke-linecap="butt" stroke-linejoin="round" fill="none" />
    <path d="M656.71936,254.51068 L660.6799,240.90205" stroke="#0000FF" stroke-width="0.24" stroke-linecap="butt" stroke-linejoin="round" fill="none" />
    <path d="M664.64044,227.29344 L669.9203,209.15167" stroke="#0000FF" stroke-width="0.24" stroke-linecap="round" stroke-linejoin="round" fill="none" />
    <path d="M226.17857,288.17432 L214.57579,279.18625" stroke="#0000FF" stroke-width="0.24" stroke-linecap="round" stroke-linejoin="round" fill="none" />
    <path d="M203.37115,270.50656 L192.16652,261.82693" stroke="#0000FF" stroke-width="0.24" stroke-linecap="butt" stroke-linejoin="round" fill="none" />
    <path d="M180.96188,253.14726 L169.75726,244.46759" stroke="#0000FF" stroke-width="0.24" stroke-linecap="butt" stroke-linejoin="round" fill="none" />
    <path d="M158.55261,235.78795 L146.94983,226.79985" stroke="#0000FF" stroke-width="0.24" stroke-linecap="round" stroke-linejoin="round" fill="none" />
    <path d="M270.33368,255.40497 L262.1253,245.47458" stroke="#0000FF" stroke-width="0.24" stroke-linecap="round" stroke-linejoin="round" fill="none" />
    <path d="M253.09532,234.55028 L244.06534,223.62599" stroke="#0000FF" stroke-width="0.24" stroke-linecap="butt" stroke-linejoin="round" fill="none" />
    <path d="M235.03537,212.70172 L226.00542,201.77742" stroke="#0000FF" stroke-width="0.24" stroke-linecap="butt" stroke-linejoin="round" fill="none" />
    <path d="M216.97543,190.85313 L208.76701,180.92274" stroke="#0000FF" stroke-width="0.24" stroke-linecap="round" stroke-linejoin="round" fill="none" />
    <path d="M324.96017,247.05867 L321.20914,239.70882" stroke="#0000FF" stroke-width="0.24" stroke-linecap="round" stroke-linejoin="round" fill="none" />
    <path d="M314.76633,227.08463 L308.32355,214.4604" stroke="#0000FF" stroke-width="0.24" stroke-linecap="butt" stroke-linejoin="round" fill="none" />
    <path d="M301.8807,201.83621 L295.4379,189.21199" stroke="#0000FF" stroke-width="0.24" stroke-linecap="butt" stroke-linejoin="round" fill="none" />
    <path d="M288.9951,176.5878 L285.24408,169.23795" stroke="#0000FF" stroke-width="0.24" stroke-linecap="round" stroke-linejoin="round" fill="none" />
    <path d="M380.1077,254.24171 L376.15436,237.46124" stroke="#0000FF" stroke-width="0.24" stroke-linecap="round" stroke-linejoin="round" fill="none" />
    <path d="M372.9042,223.66571 L369.65408,209.87016" stroke="#0000FF" stroke-width="0.24" stroke-linecap="butt" stroke-linejoin="round" fill="none" />
    <path d="M366.40393,196.07462 L362.4506,179.29416" stroke="#0000FF" stroke-width="0.24" stroke-linecap="round" stroke-linejoin="round" fill="none" />
    <path d="M435.28925,261.27502 L436.19806,246.42805" stroke="#0000FF" stroke-width="0.24" stroke-linecap="round" stroke-linejoin="round" fill="none" />
    <path d="M437.06403,232.2813 L437.93,218.13455" stroke="#0000FF" stroke-width="0.24" stroke-linecap="butt" stroke-linejoin="round" fill="none" />
    <path d="M438.79593,203.9878 L439.70474,189.14082" stroke="#0000FF" stroke-width="0.24" stroke-linecap="round" stroke-linejoin="round" fill="none" />
    <path d="M490.91663,261.0245 L496.88712,244.85147" stroke="#0000FF" stroke-width="0.24" stroke-linecap="round" stroke-linejoin="round" fill="none" />
    <path d="M501.79565,231.55536 L506.7041,218.25922" stroke="#0000FF" stroke-width="0.24" stroke-linecap="butt" stroke-linejoin="round" fill="none" />
    <path d="M511.6126,204.96307 L517.5831,188.79007" stroke="#0000FF" stroke-width="0.24" stroke-linecap="round" stroke-linejoin="round" fill="none" />
    <path d="M124.639275,326.80295 L131.93935,331.0147" stroke="#0000FF" stroke-width="0.24" stroke-linecap="round" stroke-linejoin="round" fill="none" />
    <path d="M144.21588,338.09756 L156.4924,345.18045" stroke="#0000FF" stroke-width="0.24" stroke-linecap="butt" stroke-linejoin="round" fill="none" />
    <path d="M168.76894,352.2633 L181.04547,359.3462" stroke="#0000FF" stroke-width="0.24" stroke-linecap="butt" stroke-linejoin="round" fill="none" />
    <path d="M193.322,366.42908 L205.59854,373.51196" stroke="#0000FF" stroke-width="0.24" stroke-linecap="butt" stroke-linejoin="round" fill="none" />
    <path d="M217.87508,380.59482 L225.17516,384.80655" stroke="#0000FF" stroke-width="0.24" stroke-linecap="round" stroke-linejoin="round" fill="none" />
  </g>
  <g id="Band_Edges">
    <path d="M650.5702,674.3413 C634.7395,655.39966 617.1539,638.0724 599.6638,620.6769 C590.4901,611.5527 581.34265,602.4097 572.3164,593.1433 C563.2901,583.8769 554.38495,574.48706 545.5916,564.9971 C536.7314,555.43494 527.98474,545.77106 519.17804,536.1607 C510.37137,526.5504 501.50455,516.9935 492.3007,507.75974 C481.90845,497.33374 471.0864,487.31964 459.4804,478.26758 C447.8744,469.21548 435.48447,461.12546 422.29013,454.6045 C408.4511,447.7649 393.7272,442.65143 378.55624,439.8073 C363.38522,436.96326 347.76715,436.38852 332.44992,438.30087 C323.22522,439.4526 314.10965,441.50638 305.28497,444.43427 C296.46033,447.36218 287.92657,451.16425 279.85736,455.78098 C272.1388,460.1971 264.84525,465.35864 258.10956,471.16702 C251.37393,476.97543 245.19615,483.43063 239.68956,490.41238 C230.05844,502.62344 222.48044,516.4452 217.26408,531.0989 C214.49078,538.8895 212.38503,546.9154 210.93306,555.0566 C209.48111,563.1978 208.68294,571.45435 208.51239,579.7217 C208.33946,588.1033 208.81163,596.4959 209.85524,604.81525 C210.89886,613.1345 212.51392,621.3805 214.60765,629.49786 C218.43105,644.32104 223.85065,658.7154 230.1668,672.6499" stroke="#000000" stroke-width="0.24" stroke-linecap="round" stroke-linejoin="round" fill="none" />
    <path d="M159.07867,390.3389 C169.96037,386.9767 181.2443,384.94968 192.60263,384.13016 C203.96097,383.31064 215.39369,383.6986 226.71062,384.97406 C237.98141,386.24432 249.13734,388.3948 260.1842,390.97153 C271.23105,393.54822 282.16882,396.55112 293.11896,399.51086 C303.18884,402.23276 313.26917,404.9182 323.4307,407.2717 C333.59225,409.62518 343.83505,411.64673 354.15637,413.14996 C364.53772,414.6619 374.99854,415.6495 385.48157,416.05344 C395.9646,416.4574 406.46988,416.2777 416.93835,415.59134 C427.61664,414.89124 438.25662,413.66394 448.8483,412.13416 C459.44,410.60437 469.98343,408.77216 480.53564,406.98502 C491.46872,405.1334 502.4113,403.33023 513.42334,402.02878 C524.4354,400.7273 535.517,399.92752 546.6039,400.03192 C552.1437,400.08414 557.68475,400.36206 563.19934,400.89767 C568.71387,401.4333 574.2019,402.22656 579.6353,403.30896 C591.6634,405.70508 603.424,409.51816 614.48395,414.81445 C625.2495,419.96976 635.3513,426.53033 644.41156,434.3026 C653.47174,442.07486 661.49036,451.05884 668.2387,460.90448" stroke="#000000" stroke-width="0.24" stroke-linecap="round" stroke-linejoin="round" fill="none" />
    <path d="M282.68857,679.9841 C277.95148,669.53314 273.88675,658.7374 271.0192,647.61993 C269.4489,641.532 268.2376,635.3475 267.45493,629.108 C266.6722,622.86847 266.31808,616.57404 266.44775,610.28784 C266.57568,604.0874 267.17432,597.89496 268.26328,591.789 C269.35223,585.68317 270.93155,579.66376 273.01154,573.82074 C276.9238,562.83044 282.6073,552.4642 289.83066,543.30585 C293.9606,538.0696 298.59393,533.22815 303.64563,528.8719 C308.6974,524.51556 314.16757,520.6444 319.9565,517.3323 C326.00842,513.86975 332.40872,511.01825 339.02722,508.82227 C345.6457,506.62634 352.4824,505.08603 359.4009,504.22226 C370.88882,502.788 382.6024,503.219 393.98062,505.3521 C405.3589,507.48517 416.40182,511.32022 426.7811,516.44995 C436.67682,521.3407 445.96927,527.4082 454.6738,534.19727 C463.37827,540.9863 471.49478,548.4969 479.289,556.31635 C486.1919,563.24176 492.84198,570.40936 499.44702,577.6171 C506.052,584.8249 512.61206,592.0728 519.25714,599.2444 C525.8521,606.3619 532.53107,613.40424 539.3007,620.35406 C546.0705,627.3039 552.931,634.1611 559.81134,641.0043 C572.9289,654.05084 586.1181,667.0464 597.99115,681.25256" stroke="#000000" stroke-width="0.24" stroke-linecap="round" stroke-linejoin="round" fill="none" />
    <path d="M718.65924,409.12946 C710.7862,397.64285 701.43115,387.16156 690.8609,378.09393 C680.29065,369.02628 668.5053,361.37225 655.94543,355.35776 C643.0421,349.17877 629.3214,344.73013 615.28876,341.93466 C608.9497,340.67184 602.547,339.74637 596.11334,339.1215 C589.6797,338.4966 583.2151,338.17236 576.752,338.11148 C563.8174,337.98962 550.88885,338.92273 538.0414,340.4411 C525.194,341.9595 512.42773,344.0632 499.6724,346.22342 C487.36148,348.30838 475.06082,350.44598 462.70383,352.23074 C450.34683,354.01547 437.93356,355.44733 425.47556,356.26413 C413.26236,357.06485 401.0062,357.2745 388.77597,356.80325 C376.54578,356.33197 364.3415,355.17978 352.2299,353.41583 C340.18835,351.66208 328.23846,349.30362 316.3833,346.55786 C304.52817,343.81213 292.7678,340.6791 281.0196,337.5036 C268.24448,334.0505 255.48372,330.54712 242.59572,327.54095 C229.70772,324.53485 216.69246,322.0259 203.5432,320.54398 C190.34013,319.05594 177.00194,318.6033 163.75055,319.55942 C150.49918,320.5155 137.3346,322.8804 124.639275,326.80295" stroke="#000000" stroke-width="0.24" stroke-linecap="round" stroke-linejoin="round" fill="none" />
    <path d="M725.6807,262.2254 C718.4094,249.99396 709.2454,238.88809 698.6653,229.37202 C688.085,219.85599 676.08875,211.9297 663.27136,205.74742 C651.04034,199.84798 638.06177,195.5366 624.8013,192.61018 C611.5408,189.68376 597.9985,188.1423 584.43207,187.49341 C572.2429,186.91039 560.03424,187.04791 547.83844,187.45386 C535.6427,187.8598 523.4597,188.53416 511.2697,189.08395 C499.3479,189.62164 487.41937,190.04018 475.4863,190.10225 C463.55322,190.16432 451.61557,189.86993 439.70465,189.14081 C427.79373,188.4117 415.90955,187.24786 404.07306,185.73097 C392.23654,184.21407 380.4477,182.34407 368.68073,180.35606 C356.64914,178.32333 344.6404,176.16722 332.58463,174.27727 C320.5288,172.38731 308.42596,170.76352 296.2577,169.85443 C283.6884,168.91539 271.04926,168.73894 258.48566,169.75192 C243.97513,170.92188 229.56532,173.67848 215.7824,178.35472 C202.3077,182.92638 189.43216,189.33278 177.77037,197.48737 C166.10861,205.64194 155.6606,215.54471 146.94983,226.79985" stroke="#000000" stroke-width="0.24" stroke-linecap="round" stroke-linejoin="round" fill="none" />
    <path d="M226.17857,288.17432 C232.40056,280.13492 239.86342,273.06152 248.19325,267.23685 C256.52307,261.4121 265.7199,256.83612 275.3447,253.57066 C285.18964,250.2305 295.48236,248.26149 305.84702,247.42583 C314.821,246.70224 323.84897,246.82828 332.82703,247.49904 C341.51868,248.14838 350.16357,249.30823 358.77487,250.6582 C367.3861,252.00818 375.9638,253.54825 384.55777,255.00018 C392.96277,256.4202 401.38336,257.7559 409.838,258.83942 C418.29266,259.92294 426.78134,260.75424 435.28915,261.27502 C443.79694,261.7958 452.32385,262.00607 460.8475,261.96176 C469.37112,261.91742 477.89148,261.61847 486.40707,261.2344 C495.11414,260.8417 503.8163,260.36002 512.5276,260.07007 C521.2389,259.7801 529.95935,259.68185 538.6659,260.0983 C548.3562,260.56177 558.02924,261.66284 567.50104,263.75314 C576.9728,265.84344 586.2432,268.92297 594.9797,273.13687 C604.13495,277.5528 612.7038,283.21442 620.261,290.0116 C627.81824,296.80878 634.364,304.74155 639.5578,313.4783" stroke="#000000" stroke-width="0.24" stroke-linecap="round" stroke-linejoin="round" fill="none" />
  </g>
  <rect x="136.2" y="698.1" width="2.4" height="2.4" stroke="#960000" stroke-width="0" fill="#960000" fill-opacity="1" />
  <rect x="93.73" y="698.1" width="2.4" height="2.4" stroke="#960000" stroke-width="0" fill="#960000" fill-opacity="1" />
  <rect x="107.9" y="684" width="2.4" height="2.4" stroke="#960000" stroke-width="0" fill="#960000" fill-opacity="1" />
  <rect x="136.2" y="698.1" width="2.4" height="2.4" stroke="#960000" stroke-width="0" fill="#960000" fill-opacity="1" />
  <rect x="93.73" y="712.3" width="2.4" height="2.4" stroke="#960000" stroke-width="0" fill="#960000" fill-opacity="1" />
  <rect x="107.9" y="684" width="2.4" height="2.4" stroke="#960000" stroke-width="0" fill="#960000" fill-opacity="1" />
</svg>