<svg xmlns="http://www.w3.org/2000/svg" width="43.110mm" height="33.737mm" viewBox="0 0 43.110 33.737">
  <g id="cuts">
    <line x1="6.806" y1="12.287" x2="8.401" y2="11.866" stroke="#000000" stroke-width="0.200" fill="none" />
    <line x1="5.000" y1="5.453" x2="7.408" y2="5.000" stroke="#000000" stroke-width="0.200" fill="none" />
    <line x1="8.401" y1="11.866" x2="10.050" y2="11.818" stroke="#000000" stroke-width="0.200" fill="none" />
    <line x1="7.408" y1="5.000" x2="10.585" y2="5.092" stroke="#000000" stroke-width="0.200" fill="none" />
    <line x1="10.050" y1="11.818" x2="11.672" y2="12.125" stroke="#000000" stroke-width="0.200" fill="none" />
    <line x1="10.585" y1="5.092" x2="13.495" y2="5.887" stroke="#000000" stroke-width="0.200" fill="none" />
    <line x1="11.672" y1="12.125" x2="13.204" y2="12.740" stroke="#000000" stroke-width="0.200" fill="none" />
    <line x1="13.495" y1="5.887" x2="15.961" y2="7.177" stroke="#000000" stroke-width="0.200" fill="none" />
    <line x1="13.204" y1="12.740" x2="14.622" y2="13.588" stroke="#000000" stroke-width="0.200" fill="none" />
    <line x1="15.961" y1="7.177" x2="17.919" y2="8.698" stroke="#000000" stroke-width="0.200" fill="none" />
    <line x1="14.622" y1="13.588" x2="15.941" y2="14.585" stroke="#000000" stroke-width="0.200" fill="none" />
    <line x1="17.919" y1="8.698" x2="19.430" y2="10.213" stroke="#000000" stroke-width="0.200" fill="none" />
    <line x1="15.941" y1="14.585" x2="17.206" y2="15.649" stroke="#000000" stroke-width="0.200" fill="none" />
    <line x1="19.430" y1="10.213" x2="20.636" y2="11.571" stroke="#000000" stroke-width="0.200" fill="none" />
    <line x1="17.206" y1="15.649" x2="18.472" y2="16.713" stroke="#000000" stroke-width="0.200" fill="none" />
    <line x1="20.636" y1="11.571" x2="21.698" y2="12.713" stroke="#000000" stroke-width="0.200" fill="none" />
    <line x1="18.472" y1="16.713" x2="19.779" y2="17.725" stroke="#000000" stroke-width="0.200" fill="none" />
    <line x1="21.698" y1="12.713" x2="22.749" y2="13.636" stroke="#000000" stroke-width="0.200" fill="none" />
    <line x1="19.779" y1="17.725" x2="21.146" y2="18.655" stroke="#000000" stroke-width="0.200" fill="none" />
    <line x1="22.749" y1="13.636" x2="23.881" y2="14.366" stroke="#000000" stroke-width="0.200" fill="none" />
    <line x1="21.146" y1="18.655" x2="22.566" y2="19.502" stroke="#000000" stroke-width="0.200" fill="none" />
    <line x1="23.881" y1="14.366" x2="25.154" y2="14.952" stroke="#000000" stroke-width="0.200" fill="none" />
    <line x1="22.566" y1="19.502" x2="24.019" y2="20.290" stroke="#000000" stroke-width="0.200" fill="none" />
    <line x1="25.154" y1="14.952" x2="26.627" y2="15.479" stroke="#000000" stroke-width="0.200" fill="none" />
    <line x1="24.019" y1="20.290" x2="25.473" y2="21.077" stroke="#000000" stroke-width="0.200" fill="none" />
    <line x1="26.627" y1="15.479" x2="28.350" y2="16.079" stroke="#000000" stroke-width="0.200" fill="none" />
    <line x1="25.473" y1="21.077" x2="26.884" y2="21.939" stroke="#000000" stroke-width="0.200" fill="none" />
    <line x1="28.350" y1="16.079" x2="30.332" y2="16.929" stroke="#000000" stroke-width="0.200" fill="none" />
    <line x1="26.884" y1="21.939" x2="28.192" y2="22.948" stroke="#000000" stroke-width="0.200" fill="none" />
    <line x1="30.332" y1="16.929" x2="32.478" y2="18.215" stroke="#000000" stroke-width="0.200" fill="none" />
    <line x1="28.192" y1="22.948" x2="29.325" y2="24.150" stroke="#000000" stroke-width="0.200" fill="none" />
    <line x1="32.478" y1="18.215" x2="34.584" y2="20.075" stroke="#000000" stroke-width="0.200" fill="none" />
    <line x1="29.325" y1="24.150" x2="30.205" y2="25.546" stroke="#000000" stroke-width="0.200" fill="none" />
    <line x1="34.584" y1="20.075" x2="36.374" y2="22.534" stroke="#000000" stroke-width="0.200" fill="none" />
    <line x1="30.205" y1="25.546" x2="30.764" y2="27.098" stroke="#000000" stroke-width="0.200" fill="none" />
    <line x1="36.374" y1="22.534" x2="37.590" y2="25.491" stroke="#000000" stroke-width="0.200" fill="none" />
    <line x1="30.764" y1="27.098" x2="30.956" y2="28.737" stroke="#000000" stroke-width="0.200" fill="none" />
    <line x1="37.590" y1="25.491" x2="38.110" y2="27.899" stroke="#000000" stroke-width="0.200" fill="none" />
    <line x1="6.806" y1="12.287" x2="5.000" y2="5.453" stroke="#000000" stroke-width="0.200" fill="none" />
    <line x1="30.956" y1="28.737" x2="38.110" y2="27.899" stroke="#000000" stroke-width="0.200" fill="none" />
  </g>
  <g id="creases">
    <line x1="8.401" y1="11.866" x2="7.408" y2="5.000" stroke="#555555" stroke-width="0.100" fill="none" />
    <line x1="6.806" y1="12.287" x2="7.408" y2="5.000" stroke="#555555" stroke-width="0.100" fill="none" />
    <line x1="10.050" y1="11.818" x2="10.585" y2="5.092" stroke="#555555" stroke-width="0.100" fill="none" />
    <line x1="8.401" y1="11.866" x2="10.585" y2="5.092" stroke="#555555" stroke-width="0.100" fill="none" />
    <line x1="11.672" y1="12.125" x2="13.495" y2="5.887" stroke="#555555" stroke-width="0.100" fill="none" />
    <line x1="10.050" y1="11.818" x2="13.495" y2="5.887" stroke="#555555" stroke-width="0.100" fill="none" />
    <line x1="13.204" y1="12.740" x2="15.961" y2="7.177" stroke="#555555" stroke-width="0.100" fill="none" />
    <line x1="11.672" y1="12.125" x2="15.961" y2="7.177" stroke="#555555" stroke-width="0.100" fill="none" />
    <line x1="14.622" y1="13.588" x2="17.919" y2="8.698" stroke="#555555" stroke-width="0.100" fill="none" />
    <line x1="13.204" y1="12.740" x2="17.919" y2="8.698" stroke="#555555" stroke-width="0.100" fill="none" />
    <line x1="15.941" y1="14.585" x2="19.430" y2="10.213" stroke="#555555" stroke-width="0.100" fill="none" />
    <line x1="14.622" y1="13.588" x2="19.430" y2="10.213" stroke="#555555" stroke-width="0.100" fill="none" />
    <line x1="17.206" y1="15.649" x2="20.636" y2="11.571" stroke="#555555" stroke-width="0.100" fill="none" />
    <line x1="15.941" y1="14.585" x2="20.636" y2="11.571" stroke="#555555" stroke-width="0.100" fill="none" />
    <line x1="18.472" y1="16.713" x2="21.698" y2="12.713" stroke="#555555" stroke-width="0.100" fill="none" />
    <line x1="17.206" y1="15.649" x2="21.698" y2="12.713" stroke="#555555" stroke-width="0.100" fill="none" />
    <line x1="19.779" y1="17.725" x2="22.749" y2="13.636" stroke="#555555" stroke-width="0.100" fill="none" />
    <line x1="18.472" y1="16.713" x2="22.749" y2="13.636" stroke="#555555" stroke-width="0.100" fill="none" />
    <line x1="21.146" y1="18.655" x2="23.881" y2="14.366" stroke="#555555" stroke-width="0.100" fill="none" />
    <line x1="19.779" y1="17.725" x2="23.881" y2="14.366" stroke="#555555" stroke-width="0.100" fill="none" />
    <line x1="22.566" y1="19.502" x2="25.154" y2="14.952" stroke="#555555" stroke-width="0.100" fill="none" />
    <line x1="21.146" y1="18.655" x2="25.154" y2="14.952" stroke="#555555" stroke-width="0.100" fill="none" />
    <line x1="24.019" y1="20.290" x2="26.627" y2="15.479" stroke="#555555" stroke-width="0.100" fill="none" />
    <line x1="22.566" y1="19.502" x2="26.627" y2="15.479" stroke="#555555" stroke-width="0.100" fill="none" />
    <line x1="25.473" y1="21.077" x2="28.350" y2="16.079" stroke="#555555" stroke-width="0.100" fill="none" />
    <line x1="24.019" y1="20.290" x2="28.350" y2="16.079" stroke="#555555" stroke-width="0.100" fill="none" />
    <line x1="26.884" y1="21.939" x2="30.332" y2="16.929" stroke="#555555" stroke-width="0.100" fill="none" />
    <line x1="25.473" y1="21.077" x2="30.332" y2="16.929" stroke="#555555" stroke-width="0.100" fill="none" />
    <line x1="28.192" y1="22.948" x2="32.478" y2="18.215" stroke="#555555" stroke-width="0.100" fill="none" />
    <line x1="26.884" y1="21.939" x2="32.478" y2="18.215" stroke="#555555" stroke-width="0.100" fill="none" />
    <line x1="29.325" y1="24.150" x2="34.584" y2="20.075" stroke="#555555" stroke-width="0.100" fill="none" />
    <line x1="28.192" y1="22.948" x2="34.584" y2="20.075" stroke="#555555" stroke-width="0.100" fill="none" />
    <line x1="30.205" y1="25.546" x2="36.374" y2="22.534" stroke="#555555" stroke-width="0.100" fill="none" />
    <line x1="29.325" y1="24.150" x2="36.374" y2="22.534" stroke="#555555" stroke-width="0.100" fill="none" />
    <line x1="30.764" y1="27.098" x2="37.590" y2="25.491" stroke="#555555" stroke-width="0.100" fill="none" />
    <line x1="30.205" y1="25.546" x2="37.590" y2="25.491" stroke="#555555" stroke-width="0.100" fill="none" />
    <line x1="30.956" y1="28.737" x2="38.110" y2="27.899" stroke="#555555" stroke-width="0.100" fill="none" />
    <line x1="30.764" y1="27.098" x2="38.110" y2="27.899" stroke="#555555" stroke-width="0.100" fill="none" />
  </g>
</svg>