<?xml version="1.0" encoding="utf-8" standalone="no"?>
<!DOCTYPE svg PUBLIC "-//W3C//DTD SVG 1.1//EN" "http://www.w3.org/Graphics/SVG/1.1/DTD/svg11.dtd">
<svg version="1.1" width="850.3pt" height="850.3pt" viewBox="0 0 850.32 850.32" xmlns="http://www.w3.org/2000/svg">
  <defs />
  <g id="Layer_05">
    <path d="M377.83264,329.88495 L394.37155,329.88495 L394.37155,343.18658 L377.83264,343.18658" stroke="#000000" stroke-width="0.24" stroke-linecap="round" stroke-linejoin="round" fill="none" />
    <path d="M684.83594,507.13342 L732.1633,425.16" stroke="#000000" stroke-width="0.24" stroke-linecap="round" stroke-linejoin="round" fill="none" />
    <path d="M458.45688,416.32367 L485.01855,400.98828 L476.02258,385.40683 L449.4609,400.74222" stroke="#000000" stroke-width="0.24" stroke-linecap="round" stroke-linejoin="round" fill="none" />
    <path d="M70.82929,507.13342 L87.36822,507.13342 L87.36822,520.435 L70.82929,520.435" stroke="#000000" stroke-width="0.24" stroke-linecap="round" stroke-linejoin="round" fill="none" />
    <path d="M177.00359,691.0327 L271.65833,691.0327" stroke="#000000" stroke-width="0.24" stroke-linecap="round" stroke-linejoin="round" fill="none" />
    <path d="M732.1633,425.16 L779.4907,343.18658" stroke="#000000" stroke-width="0.24" stroke-linecap="round" stroke-linejoin="round" fill="none" />
    <path d="M732.1633,247.91153 L684.83594,165.93813" stroke="#000000" stroke-width="0.24" stroke-linecap="round" stroke-linejoin="round" fill="none" />
    <path d="M779.4907,329.88495 L732.1633,247.91153" stroke="#000000" stroke-width="0.24" stroke-linecap="round" stroke-linejoin="round" fill="none" />
    <path d="M425.16,602.40845 L472.48737,520.435" stroke="#000000" stroke-width="0.24" stroke-linecap="round" stroke-linejoin="round" fill="none" />
    <path d="M271.65833,336.53577 L177.00359,336.53577" stroke="#000000" stroke-width="0.24" stroke-linecap="round" stroke-linejoin="round" fill="none" />
    <path d="M779.4907,343.18658 L762.9518,343.18658 L762.9518,329.88495 L779.4907,329.88495" stroke="#000000" stroke-width="0.24" stroke-linecap="round" stroke-linejoin="round" fill="none" />
    <path d="M400.8591,449.57776 L374.29742,464.91318 L365.30145,449.3317 L391.86313,433.9963" stroke="#000000" stroke-width="0.24" stroke-linecap="round" stroke-linejoin="round" fill="none" />
    <path d="M578.6617,192.5414 L654.1172,192.5414 L662.38666,178.21826 L673.9062,184.86908 L665.6367,199.1922 L703.3645,264.5386" stroke="#000000" stroke-width="0.24" stroke-linecap="round" stroke-linejoin="round" fill="none" />
    <path d="M684.83594,165.93813 L676.5665,180.26126 L665.047,173.61044 L673.3164,159.28731" stroke="#000000" stroke-width="0.24" stroke-linecap="round" stroke-linejoin="round" fill="none" />
    <path d="M484.00693,159.28731 L492.2764,173.61044 L480.75684,180.26126 L472.48737,165.93813" stroke="#000000" stroke-width="0.24" stroke-linecap="round" stroke-linejoin="round" fill="none" />
    <path d="M400.8591,449.57776 L434.08887,507.13342 L450.6278,507.13342 L450.6278,520.435 L434.08887,520.435 L396.3611,585.78143" stroke="#000000" stroke-width="0.24" stroke-linecap="round" stroke-linejoin="round" fill="none" />
    <path d="M472.48737,520.435 L455.94843,520.435 L455.94843,507.13342 L472.48737,507.13342" stroke="#000000" stroke-width="0.24" stroke-linecap="round" stroke-linejoin="round" fill="none" />
    <path d="M165.48404,684.38184 L173.7535,670.0587 L185.27304,676.70953 L177.00359,691.0327" stroke="#000000" stroke-width="0.24" stroke-linecap="round" stroke-linejoin="round" fill="none" />
    <path d="M118.15666,425.16 L70.82929,507.13342" stroke="#000000" stroke-width="0.24" stroke-linecap="round" stroke-linejoin="round" fill="none" />
    <path d="M70.82929,520.435 L118.15666,602.40845" stroke="#000000" stroke-width="0.24" stroke-linecap="round" stroke-linejoin="round" fill="none" />
    <path d="M146.95554,441.78702 L184.68329,376.44067 L176.41383,362.11755 L187.93338,355.4667 L196.20284,369.78986 L271.65833,369.78986" stroke="#000000" stroke-width="0.24" stroke-linecap="round" stroke-linejoin="round" fill="none" />
    <path d="M271.65833,657.77856 L196.20284,657.77856 L187.93338,672.10175 L176.41383,665.4509 L184.68329,651.1278 L146.95554,585.78143" stroke="#000000" stroke-width="0.24" stroke-linecap="round" stroke-linejoin="round" fill="none" />
    <path d="M366.31308,691.0327 L358.0436,676.70953 L369.56317,670.0587 L377.83264,684.38184" stroke="#000000" stroke-width="0.24" stroke-linecap="round" stroke-linejoin="round" fill="none" />
    <path d="M118.15666,602.40845 L165.48404,684.38184" stroke="#000000" stroke-width="0.24" stroke-linecap="round" stroke-linejoin="round" fill="none" />
    <path d="M396.3611,585.78143 L358.6334,651.1278 L366.90283,665.4509 L355.38327,672.10175 L347.11383,657.77856 L271.65833,657.77856" stroke="#000000" stroke-width="0.24" stroke-linecap="round" stroke-linejoin="round" fill="none" />
    <path d="M472.48737,165.93813 L425.16,247.91153" stroke="#000000" stroke-width="0.24" stroke-linecap="round" stroke-linejoin="round" fill="none" />
    <path d="M578.6617,480.53015 L503.20618,480.53015 L494.9367,494.85327 L483.41714,488.20245 L491.68665,473.87933 L458.45688,416.32367" stroke="#000000" stroke-width="0.24" stroke-linecap="round" stroke-linejoin="round" fill="none" />
    <path d="M177.00359,336.53577 L185.27304,350.85892 L173.7535,357.5097 L165.48404,343.18658" stroke="#000000" stroke-width="0.24" stroke-linecap="round" stroke-linejoin="round" fill="none" />
    <path d="M703.3645,264.5386 L741.0922,329.88495 L757.6311,329.88495 L757.6311,343.18658 L741.0922,343.18658 L703.3645,408.53296" stroke="#000000" stroke-width="0.24" stroke-linecap="round" stroke-linejoin="round" fill="none" />
    <path d="M271.65833,691.0327 L366.31308,691.0327" stroke="#000000" stroke-width="0.24" stroke-linecap="round" stroke-linejoin="round" fill="none" />
    <path d="M366.31308,336.53577 L271.65833,336.53577" stroke="#000000" stroke-width="0.24" stroke-linecap="round" stroke-linejoin="round" fill="none" />
    <path d="M146.95554,585.78143 L109.2278,520.435 L92.688866,520.435 L92.688866,507.13342 L109.2278,507.13342 L146.95554,441.78702" stroke="#000000" stroke-width="0.24" stroke-linecap="round" stroke-linejoin="round" fill="none" />
    <path d="M673.3164,513.78424 L665.047,499.4611 L676.5665,492.8103 L684.83594,507.13342" stroke="#000000" stroke-width="0.24" stroke-linecap="round" stroke-linejoin="round" fill="none" />
    <path d="M377.83264,684.38184 L425.16,602.40845" stroke="#000000" stroke-width="0.24" stroke-linecap="round" stroke-linejoin="round" fill="none" />
    <path d="M703.3645,408.53296 L665.6367,473.87933 L673.9062,488.20245 L662.38666,494.85327 L654.1172,480.53015 L578.6617,480.53015" stroke="#000000" stroke-width="0.24" stroke-linecap="round" stroke-linejoin="round" fill="none" />
    <path d="M271.65833,369.78986 L347.11383,369.78986 L355.38327,355.4667 L366.90283,362.11755 L358.6334,376.44067 L391.86313,433.9963" stroke="#000000" stroke-width="0.24" stroke-linecap="round" stroke-linejoin="round" fill="none" />
    <path d="M578.6617,513.78424 L673.3164,513.78424" stroke="#000000" stroke-width="0.24" stroke-linecap="round" stroke-linejoin="round" fill="none" />
    <path d="M377.83264,343.18658 L369.56317,357.5097 L358.0436,350.85892 L366.31308,336.53577" stroke="#000000" stroke-width="0.24" stroke-linecap="round" stroke-linejoin="round" fill="none" />
    <path d="M453.9589,264.5386 L491.68665,199.1922 L483.41714,184.86908 L494.9367,178.21826 L503.20618,192.5414 L578.6617,192.5414" stroke="#000000" stroke-width="0.24" stroke-linecap="round" stroke-linejoin="round" fill="none" />
    <path d="M425.16,247.91153 L377.83264,329.88495" stroke="#000000" stroke-width="0.24" stroke-linecap="round" stroke-linejoin="round" fill="none" />
    <path d="M578.6617,159.28731 L484.00693,159.28731" stroke="#000000" stroke-width="0.24" stroke-linecap="round" stroke-linejoin="round" fill="none" />
    <path d="M484.00693,513.78424 L578.6617,513.78424" stroke="#000000" stroke-width="0.24" stroke-linecap="round" stroke-linejoin="round" fill="none" />
    <path d="M673.3164,159.28731 L578.6617,159.28731" stroke="#000000" stroke-width="0.24" stroke-linecap="round" stroke-linejoin="round" fill="none" />
    <path d="M472.48737,507.13342 L480.75684,492.8103 L492.2764,499.4611 L484.00693,513.78424" stroke="#000000" stroke-width="0.24" stroke-linecap="round" stroke-linejoin="round" fill="none" />
    <path d="M165.48404,343.18658 L118.15666,425.16" stroke="#000000" stroke-width="0.24" stroke-linecap="round" stroke-linejoin="round" fill="none" />
    <path d="M449.4609,400.74222 L416.23114,343.18658 L399.6922,343.18658 L399.6922,329.88495 L416.23114,329.88495 L453.9589,264.5386" stroke="#000000" stroke-width="0.24" stroke-linecap="round" stroke-linejoin="round" fill="none" />
  </g>
  <circle cx="449.5" cy="400.7" r="0.72" stroke="#000000" stroke-width="0.24" fill="#FFFFFF" fill-opacity="1" />
  <circle cx="458.5" cy="416.3" r="0.72" stroke="#000000" stroke-width="0.24" fill="#FFFFFF" fill-opacity="1" />
  <circle cx="400.9" cy="449.6" r="0.72" stroke="#000000" stroke-width="0.24" fill="#FFFFFF" fill-opacity="1" />
  <circle cx="391.9" cy="434" r="0.72" stroke="#000000" stroke-width="0.24" fill="#FFFFFF" fill-opacity="1" />
</svg>